<mxfile host="app.diagrams.net" agent="Mozilla/5.0 (Windows NT 10.0; Win64; x64) AppleWebKit/537.36 (KHTML, like Gecko) Chrome/135.0.0.0 Safari/537.36 Edg/135.0.0.0" version="26.2.9">
  <diagram id="_ziMa6V_oYhgSmaQkYBD" name="PÃ¡gina-1">
    <mxGraphModel dx="1420" dy="786" grid="1" gridSize="10" guides="1" tooltips="1" connect="1" arrows="1" fold="1" page="1" pageScale="1" pageWidth="850" pageHeight="1100" math="0" shadow="0">
      <root>
        <mxCell id="0" />
        <mxCell id="1" parent="0" />
        <mxCell id="2" value="Home" style="rounded=1;whiteSpace=wrap;html=1;fillColor=#0080ff;fontColor=#ffffff;" parent="1" vertex="1">
          <mxGeometry x="360" y="40" width="120" height="60" as="geometry" />
        </mxCell>
        <mxCell id="3" value="customer_new" style="rounded=1;whiteSpace=wrap;html=1;fillColor=#0080ff;fontColor=#ffffff;" parent="1" vertex="1">
          <mxGeometry x="159" y="175" width="100" height="30" as="geometry" />
        </mxCell>
        <mxCell id="4" value="quotation_new" style="rounded=1;whiteSpace=wrap;html=1;fillColor=#0080ff;fontColor=#ffffff;" parent="1" vertex="1">
          <mxGeometry x="279" y="175" width="90" height="30" as="geometry" />
        </mxCell>
        <mxCell id="5" value="" style="group;rounded=1;fillColor=none;strokeColor=black;dashed=1;" parent="1" vertex="1">
          <mxGeometry x="154" y="160" width="225" height="60" as="geometry" />
        </mxCell>
        <mxCell id="6" value="Dashboard" style="rounded=1;whiteSpace=wrap;html=1;fillColor=#0080ff;fontColor=#ffffff;" parent="1" vertex="1">
          <mxGeometry x="488" y="278" width="120" height="60" as="geometry" />
        </mxCell>
        <mxCell id="7" value="user_list" style="rounded=1;whiteSpace=wrap;html=1;fillColor=#0080ff;fontColor=#ffffff;" parent="1" vertex="1">
          <mxGeometry x="95" y="499" width="120" height="60" as="geometry" />
        </mxCell>
        <mxCell id="8" value="user_detail" style="rounded=1;whiteSpace=wrap;html=1;fillColor=#0080ff;fontColor=#ffffff;" parent="1" vertex="1">
          <mxGeometry x="93" y="619" width="120" height="60" as="geometry" />
        </mxCell>
        <mxCell id="9" value="pass_reset" style="rounded=1;whiteSpace=wrap;html=1;fillColor=#0080ff;fontColor=#ffffff;" parent="1" vertex="1">
          <mxGeometry x="316" y="499" width="120" height="60" as="geometry" />
        </mxCell>
        <mxCell id="10" value="quotation_list" style="rounded=1;whiteSpace=wrap;html=1;fillColor=#0080ff;fontColor=#ffffff;" parent="1" vertex="1">
          <mxGeometry x="687" y="499" width="120" height="60" as="geometry" />
        </mxCell>
        <mxCell id="12" value="customer_list" style="rounded=1;whiteSpace=wrap;html=1;fillColor=#0080ff;fontColor=#ffffff;" parent="1" vertex="1">
          <mxGeometry x="476" y="499" width="120" height="60" as="geometry" />
        </mxCell>
        <mxCell id="13" value="customer_detail" style="rounded=1;whiteSpace=wrap;html=1;fillColor=#0080ff;fontColor=#ffffff;" parent="1" vertex="1">
          <mxGeometry x="476" y="619" width="120" height="60" as="geometry" />
        </mxCell>
        <mxCell id="14" style="entryX=0.5;entryY=0;entryDx=0;entryDy=0;" parent="1" target="5" edge="1">
          <mxGeometry relative="1" as="geometry">
            <mxPoint x="420" y="100" as="sourcePoint" />
            <mxPoint x="170" y="160" as="targetPoint" />
            <Array as="points" />
          </mxGeometry>
        </mxCell>
        <mxCell id="15" style="endArrow=classic;html=1;" parent="1" source="3" target="4" edge="1">
          <mxGeometry width="50" height="50" relative="1" as="geometry">
            <mxPoint x="269" y="190" as="sourcePoint" />
            <mxPoint x="289" y="190" as="targetPoint" />
          </mxGeometry>
        </mxCell>
        <mxCell id="16" style="endArrow=classic;html=1;exitX=0.5;exitY=1;exitDx=0;exitDy=0;" parent="1" source="6" target="7" edge="1">
          <mxGeometry relative="1" as="geometry">
            <mxPoint x="370" y="220" as="sourcePoint" />
            <mxPoint x="70" y="400" as="targetPoint" />
            <Array as="points" />
          </mxGeometry>
        </mxCell>
        <mxCell id="17" style="endArrow=classic;html=1;exitX=0.5;exitY=1;exitDx=0;exitDy=0;" parent="1" source="6" target="9" edge="1">
          <mxGeometry relative="1" as="geometry">
            <mxPoint x="430" y="220" as="sourcePoint" />
            <mxPoint x="250" y="400" as="targetPoint" />
            <Array as="points" />
          </mxGeometry>
        </mxCell>
        <mxCell id="19" style="endArrow=classic;html=1;exitX=0.5;exitY=1;exitDx=0;exitDy=0;" parent="1" source="6" target="10" edge="1">
          <mxGeometry relative="1" as="geometry">
            <mxPoint x="628" y="370" as="sourcePoint" />
            <mxPoint x="420" y="549" as="targetPoint" />
            <Array as="points" />
          </mxGeometry>
        </mxCell>
        <mxCell id="20" style="entryX=0.5;entryY=0;entryDx=0;entryDy=0;" parent="1" source="10" target="27" edge="1">
          <mxGeometry relative="1" as="geometry">
            <mxPoint x="512.75" y="619" as="targetPoint" />
          </mxGeometry>
        </mxCell>
        <mxCell id="21" style="endArrow=classic;html=1;exitX=0.5;exitY=1;exitDx=0;exitDy=0;" parent="1" source="6" target="12" edge="1">
          <mxGeometry relative="1" as="geometry">
            <mxPoint x="430" y="369" as="sourcePoint" />
            <mxPoint x="680" y="549" as="targetPoint" />
            <Array as="points" />
          </mxGeometry>
        </mxCell>
        <mxCell id="22" parent="1" source="12" target="13" edge="1">
          <mxGeometry relative="1" as="geometry" />
        </mxCell>
        <mxCell id="24" style="endArrow=classic;html=1;" parent="1" source="7" target="8" edge="1">
          <mxGeometry relative="1" as="geometry">
            <mxPoint x="161" y="410" as="sourcePoint" />
            <mxPoint x="311" y="470" as="targetPoint" />
          </mxGeometry>
        </mxCell>
        <mxCell id="25" style="endArrow=classic;html=1;" parent="1" source="7" target="9" edge="1">
          <mxGeometry relative="1" as="geometry">
            <mxPoint x="161" y="410" as="sourcePoint" />
            <mxPoint x="471" y="470" as="targetPoint" />
          </mxGeometry>
        </mxCell>
        <mxCell id="27" value="cotation_detail" style="rounded=1;whiteSpace=wrap;html=1;fillColor=#0080ff;fontColor=#ffffff;" parent="1" vertex="1">
          <mxGeometry x="687" y="619" width="120" height="60" as="geometry" />
        </mxCell>
        <mxCell id="7HM-TYzVGSv7COkrBMdq-27" value="login" style="rounded=1;whiteSpace=wrap;html=1;fillColor=#0080ff;fontColor=#ffffff;" parent="1" vertex="1">
          <mxGeometry x="486" y="160" width="120" height="60" as="geometry" />
        </mxCell>
        <mxCell id="7HM-TYzVGSv7COkrBMdq-28" style="exitX=0.5;exitY=1;exitDx=0;exitDy=0;entryX=0.5;entryY=0;entryDx=0;entryDy=0;" parent="1" source="2" target="7HM-TYzVGSv7COkrBMdq-27" edge="1">
          <mxGeometry relative="1" as="geometry">
            <mxPoint x="482" y="110" as="sourcePoint" />
            <mxPoint x="586" y="170" as="targetPoint" />
          </mxGeometry>
        </mxCell>
        <mxCell id="7HM-TYzVGSv7COkrBMdq-30" style="exitX=0.5;exitY=1;exitDx=0;exitDy=0;entryX=0.5;entryY=0;entryDx=0;entryDy=0;" parent="1" source="7HM-TYzVGSv7COkrBMdq-27" target="6" edge="1">
          <mxGeometry relative="1" as="geometry">
            <mxPoint x="430" y="110" as="sourcePoint" />
            <mxPoint x="319" y="170" as="targetPoint" />
          </mxGeometry>
        </mxCell>
        <mxCell id="7HM-TYzVGSv7COkrBMdq-31" value="new customer" style="text;html=1;align=center;verticalAlign=middle;whiteSpace=wrap;rounded=0;" parent="1" vertex="1">
          <mxGeometry x="154" y="130" width="80" height="30" as="geometry" />
        </mxCell>
        <mxCell id="7HM-TYzVGSv7COkrBMdq-33" value="" style="group;rounded=1;fillColor=none;strokeColor=black;dashed=1;" parent="1" vertex="1">
          <mxGeometry x="66" y="490" width="175" height="200" as="geometry" />
        </mxCell>
        <mxCell id="7HM-TYzVGSv7COkrBMdq-34" value="admin" style="text;html=1;align=center;verticalAlign=middle;whiteSpace=wrap;rounded=0;" parent="1" vertex="1">
          <mxGeometry x="66" y="460" width="80" height="30" as="geometry" />
        </mxCell>
        <mxCell id="7HM-TYzVGSv7COkrBMdq-35" style="entryX=0;entryY=0.5;entryDx=0;entryDy=0;exitX=1;exitY=0.5;exitDx=0;exitDy=0;" parent="1" source="13" target="10" edge="1">
          <mxGeometry relative="1" as="geometry">
            <mxPoint x="616" y="569" as="sourcePoint" />
            <mxPoint x="616" y="629" as="targetPoint" />
          </mxGeometry>
        </mxCell>
        <mxCell id="7HM-TYzVGSv7COkrBMdq-36" value="" style="group;rounded=1;fillColor=none;strokeColor=black;dashed=1;" parent="1" vertex="1">
          <mxGeometry x="296" y="490" width="530" height="200" as="geometry" />
        </mxCell>
        <mxCell id="7HM-TYzVGSv7COkrBMdq-37" value="user / customer" style="text;html=1;align=center;verticalAlign=middle;whiteSpace=wrap;rounded=0;" parent="1" vertex="1">
          <mxGeometry x="297" y="460" width="114" height="30" as="geometry" />
        </mxCell>
      </root>
    </mxGraphModel>
  </diagram>
</mxfile>
